<svg xmlns="http://www.w3.org/2000/svg" xmlns:xlink="http://www.w3.org/1999/xlink" id="processonSvg1000" viewBox="69.0 64.0 1316.25 571.0" width="1316.25" height="571.0"><defs id="ProcessOnDefs1001"><marker id="ProcessOnMarker1031" markerUnits="userSpaceOnUse" orient="auto" markerWidth="16.23606797749979" markerHeight="10.550836550532098" viewBox="-1.0 -1.3763819204711736 16.23606797749979 10.550836550532098" refX="-1.0" refY="3.8990363547948754"><path id="ProcessOnPath1032" d="M12.0 3.8990363547948754L0.0 7.798072709589751V0.0Z" stroke="#323232" stroke-width="2.0" fill="#323232" transform="matrix(1.0,0.0,0.0,1.0,0.0,0.0)"/></marker><marker id="ProcessOnMarker1072" markerUnits="userSpaceOnUse" orient="auto" markerWidth="16.23606797749979" markerHeight="10.550836550532098" viewBox="-1.0 -1.3763819204711736 16.23606797749979 10.550836550532098" refX="-1.0" refY="3.8990363547948754"><path id="ProcessOnPath1073" d="M12.0 3.8990363547948754L0.0 7.798072709589751V0.0Z" stroke="#323232" stroke-width="2.0" fill="#323232" transform="matrix(1.0,0.0,0.0,1.0,0.0,0.0)"/></marker><marker id="ProcessOnMarker1076" markerUnits="userSpaceOnUse" orient="auto" markerWidth="16.23606797749979" markerHeight="10.550836550532098" viewBox="-1.0 -1.3763819204711736 16.23606797749979 10.550836550532098" refX="-1.0" refY="3.8990363547948754"><path id="ProcessOnPath1077" d="M12.0 3.8990363547948754L0.0 7.798072709589751V0.0Z" stroke="#323232" stroke-width="2.0" fill="#323232" transform="matrix(1.0,0.0,0.0,1.0,0.0,0.0)"/></marker><marker id="ProcessOnMarker1092" markerUnits="userSpaceOnUse" orient="auto" markerWidth="16.23606797749979" markerHeight="10.550836550532098" viewBox="-1.0 -1.3763819204711736 16.23606797749979 10.550836550532098" refX="-1.0" refY="3.8990363547948754"><path id="ProcessOnPath1093" d="M12.0 3.8990363547948754L0.0 7.798072709589751V0.0Z" stroke="#323232" stroke-width="2.0" fill="#323232" transform="matrix(1.0,0.0,0.0,1.0,0.0,0.0)"/></marker><marker id="ProcessOnMarker1108" markerUnits="userSpaceOnUse" orient="auto" markerWidth="16.23606797749979" markerHeight="10.550836550532098" viewBox="-1.0 -1.3763819204711736 16.23606797749979 10.550836550532098" refX="-1.0" refY="3.8990363547948754"><path id="ProcessOnPath1109" d="M12.0 3.8990363547948754L0.0 7.798072709589751V0.0Z" stroke="#323232" stroke-width="2.0" fill="#323232" transform="matrix(1.0,0.0,0.0,1.0,0.0,0.0)"/></marker><marker id="ProcessOnMarker1135" markerUnits="userSpaceOnUse" orient="auto" markerWidth="16.23606797749979" markerHeight="10.550836550532098" viewBox="-1.0 -1.3763819204711736 16.23606797749979 10.550836550532098" refX="-1.0" refY="3.8990363547948754"><path id="ProcessOnPath1136" d="M12.0 3.8990363547948754L0.0 7.798072709589751V0.0Z" stroke="#323232" stroke-width="2.0" fill="#323232" transform="matrix(1.0,0.0,0.0,1.0,0.0,0.0)"/></marker><marker id="ProcessOnMarker1139" markerUnits="userSpaceOnUse" orient="auto" markerWidth="16.23606797749979" markerHeight="10.550836550532098" viewBox="-1.0 -1.3763819204711736 16.23606797749979 10.550836550532098" refX="-1.0" refY="3.8990363547948754"><path id="ProcessOnPath1140" d="M12.0 3.8990363547948754L0.0 7.798072709589751V0.0Z" stroke="#323232" stroke-width="2.0" fill="#323232" transform="matrix(1.0,0.0,0.0,1.0,0.0,0.0)"/></marker><marker id="ProcessOnMarker1153" markerUnits="userSpaceOnUse" orient="auto" markerWidth="16.23606797749979" markerHeight="10.550836550532098" viewBox="-1.0 -1.3763819204711736 16.23606797749979 10.550836550532098" refX="-1.0" refY="3.8990363547948754"><path id="ProcessOnPath1154" d="M12.0 3.8990363547948754L0.0 7.798072709589751V0.0Z" stroke="#323232" stroke-width="2.0" fill="#323232" transform="matrix(1.0,0.0,0.0,1.0,0.0,0.0)"/></marker><marker id="ProcessOnMarker1179" markerUnits="userSpaceOnUse" orient="auto" markerWidth="16.23606797749979" markerHeight="10.550836550532098" viewBox="-1.0 -1.3763819204711736 16.23606797749979 10.550836550532098" refX="-1.0" refY="3.8990363547948754"><path id="ProcessOnPath1180" d="M12.0 3.8990363547948754L0.0 7.798072709589751V0.0Z" stroke="#323232" stroke-width="2.0" fill="#323232" transform="matrix(1.0,0.0,0.0,1.0,0.0,0.0)"/></marker><marker id="ProcessOnMarker1183" markerUnits="userSpaceOnUse" orient="auto" markerWidth="16.23606797749979" markerHeight="10.550836550532098" viewBox="-1.0 -1.3763819204711736 16.23606797749979 10.550836550532098" refX="-1.0" refY="3.8990363547948754"><path id="ProcessOnPath1184" d="M12.0 3.8990363547948754L0.0 7.798072709589751V0.0Z" stroke="#323232" stroke-width="2.0" fill="#323232" transform="matrix(1.0,0.0,0.0,1.0,0.0,0.0)"/></marker><marker id="ProcessOnMarker1187" markerUnits="userSpaceOnUse" orient="auto" markerWidth="16.23606797749979" markerHeight="10.550836550532098" viewBox="-1.0 -1.3763819204711736 16.23606797749979 10.550836550532098" refX="-1.0" refY="3.8990363547948754"><path id="ProcessOnPath1188" d="M12.0 3.8990363547948754L0.0 7.798072709589751V0.0Z" stroke="#323232" stroke-width="2.0" fill="#323232" transform="matrix(1.0,0.0,0.0,1.0,0.0,0.0)"/></marker><marker id="ProcessOnMarker1193" markerUnits="userSpaceOnUse" orient="auto" markerWidth="16.23606797749979" markerHeight="10.550836550532098" viewBox="-1.0 -1.3763819204711736 16.23606797749979 10.550836550532098" refX="-1.0" refY="3.8990363547948754"><path id="ProcessOnPath1194" d="M12.0 3.8990363547948754L0.0 7.798072709589751V0.0Z" stroke="#323232" stroke-width="2.0" fill="#323232" transform="matrix(1.0,0.0,0.0,1.0,0.0,0.0)"/></marker><marker id="ProcessOnMarker1197" markerUnits="userSpaceOnUse" orient="auto" markerWidth="16.23606797749979" markerHeight="10.550836550532098" viewBox="-1.0 -1.3763819204711736 16.23606797749979 10.550836550532098" refX="-1.0" refY="3.8990363547948754"><path id="ProcessOnPath1198" d="M12.0 3.8990363547948754L0.0 7.798072709589751V0.0Z" stroke="#323232" stroke-width="2.0" fill="#323232" transform="matrix(1.0,0.0,0.0,1.0,0.0,0.0)"/></marker></defs><g id="ProcessOnG1002"><path id="ProcessOnPath1003" d="M69.0 64.0H1385.25V635.0H69.0V64.0Z" fill="#ffffff"/><g id="ProcessOnG1004"><g id="ProcessOnG1005" transform="matrix(1.0,0.0,0.0,1.0,94.0,84.0)" opacity="1.0"><path id="ProcessOnPath1006" d="M0.0 0.0L151.0 0.0L151.0 43.0L0.0 43.0Z" stroke="none" stroke-width="0.0" stroke-dasharray="none" opacity="1.0" fill="none"/><g id="ProcessOnG1007" transform="matrix(1.0,0.0,0.0,1.0,0.0,12.75)"><text id="ProcessOnText1008" fill="#000000" font-size="14" x="0.0" y="14.350000000000001" font-family="微软雅黑" font-weight="bold" font-style="normal" text-decoration="none" family="微软雅黑" text-anchor="start" size="14">var arr = [1, 2, 3];</text></g></g><g id="ProcessOnG1009" transform="matrix(1.0,0.0,0.0,1.0,89.0,360.0)" opacity="1.0"><path id="ProcessOnPath1010" d="M0.0 4.0Q0.0 0.0 4.0 0.0L126.0 0.0Q130.0 0.0 130.0 4.0L130.0 84.0Q130.0 88.0 126.0 88.0L4.0 88.0Q0.0 88.0 0.0 84.0Z" stroke="#323232" stroke-width="2.0" stroke-dasharray="none" opacity="1.0" fill="#ffffff"/><path id="ProcessOnPath1011" d="M0.0 30.0L130.0 30.0M0.0 60.0L130.0 60.0" stroke="#323232" stroke-width="2.0" stroke-dasharray="none" opacity="1.0" fill="none"/><path id="ProcessOnPath1012" d="M0.0 0.0L130.0 0.0L130.0 88.0L0.0 88.0Z" stroke="none" stroke-width="0.0" stroke-dasharray="none" opacity="1.0" fill="none"/><g id="ProcessOnG1013" transform="matrix(1.0,0.0,0.0,1.0,10.0,7.5)"><text id="ProcessOnText1014" fill="#000000" font-size="12" x="54.0" y="12.3" font-family="微软雅黑" font-weight="bold" font-style="normal" text-decoration="none" family="微软雅黑" text-anchor="middle" size="12">arr</text></g><g id="ProcessOnG1015" transform="matrix(1.0,0.0,0.0,1.0,10.0,37.5)"><text id="ProcessOnText1016" fill="#000000" font-size="12" x="54.0" y="12.3" font-family="微软雅黑" font-weight="bold" font-style="normal" text-decoration="none" family="微软雅黑" text-anchor="middle" size="12">length: 3</text></g><g id="ProcessOnG1017" transform="matrix(1.0,0.0,0.0,1.0,10.0,67.5)"><text id="ProcessOnText1018" fill="#000000" font-size="12" x="54.0" y="12.3" font-family="微软雅黑" font-weight="bold" font-style="normal" text-decoration="none" family="微软雅黑" text-anchor="middle" size="12">__proto__</text></g></g><g id="ProcessOnG1019" transform="matrix(1.0,0.0,0.0,1.0,89.0,448.0)" opacity="1.0"><path id="ProcessOnPath1020" d="M0.0 4.0Q0.0 0.0 4.0 0.0L126.0 0.0Q130.0 0.0 130.0 4.0L130.0 84.0Q130.0 88.0 126.0 88.0L4.0 88.0Q0.0 88.0 0.0 84.0Z" stroke="#323232" stroke-width="2.0" stroke-dasharray="none" opacity="1.0" fill="#ffffff"/><path id="ProcessOnPath1021" d="M0.0 30.0L130.0 30.0M0.0 60.0L130.0 60.0" stroke="#323232" stroke-width="2.0" stroke-dasharray="none" opacity="1.0" fill="none"/><path id="ProcessOnPath1022" d="M0.0 0.0L130.0 0.0L130.0 88.0L0.0 88.0Z" stroke="none" stroke-width="0.0" stroke-dasharray="none" opacity="1.0" fill="none"/><g id="ProcessOnG1023" transform="matrix(1.0,0.0,0.0,1.0,10.0,6.875)"><text id="ProcessOnText1024" fill="#000000" font-size="13" x="0.0" y="13.325" font-family="微软雅黑" font-weight="normal" font-style="normal" text-decoration="none" family="微软雅黑" text-anchor="start" size="13">0: 1</text></g><g id="ProcessOnG1025" transform="matrix(1.0,0.0,0.0,1.0,10.0,36.875)"><text id="ProcessOnText1026" fill="#000000" font-size="13" x="0.0" y="13.325" font-family="微软雅黑" font-weight="normal" font-style="normal" text-decoration="none" family="微软雅黑" text-anchor="start" size="13">1: 2</text></g><g id="ProcessOnG1027" transform="matrix(1.0,0.0,0.0,1.0,10.0,66.875)"><text id="ProcessOnText1028" fill="#000000" font-size="13" x="0.0" y="13.325" font-family="微软雅黑" font-weight="normal" font-style="normal" text-decoration="none" family="微软雅黑" text-anchor="start" size="13">2: 3</text></g></g><g id="ProcessOnG1029"><path id="ProcessOnPath1030" d="M219.0 432.0L269.5 432.0L269.5 432.0L304.7639320225002 432.0" stroke="#323232" stroke-width="2.0" stroke-dasharray="none" fill="none" marker-end="url(#ProcessOnMarker1031)"/></g><g id="ProcessOnG1033" transform="matrix(1.0,0.0,0.0,1.0,320.0,419.0)" opacity="1.0"><path id="ProcessOnPath1034" d="M0.0 4.0Q0.0 0.0 4.0 0.0L126.0 0.0Q130.0 0.0 130.0 4.0L130.0 84.0Q130.0 88.0 126.0 88.0L4.0 88.0Q0.0 88.0 0.0 84.0Z" stroke="#323232" stroke-width="2.0" stroke-dasharray="none" opacity="1.0" fill="#ffffff"/><path id="ProcessOnPath1035" d="M0.0 30.0L130.0 30.0M0.0 60.0L130.0 60.0" stroke="#323232" stroke-width="2.0" stroke-dasharray="none" opacity="1.0" fill="none"/><path id="ProcessOnPath1036" d="M0.0 0.0L130.0 0.0L130.0 88.0L0.0 88.0Z" stroke="none" stroke-width="0.0" stroke-dasharray="none" opacity="1.0" fill="none"/><g id="ProcessOnG1037" transform="matrix(1.0,0.0,0.0,1.0,10.0,7.5)"><text id="ProcessOnText1038" fill="#000000" font-size="12" x="54.0" y="12.3" font-family="微软雅黑" font-weight="bold" font-style="normal" text-decoration="none" family="微软雅黑" text-anchor="middle" size="12">Array(0) [, …]</text></g><g id="ProcessOnG1039" transform="matrix(1.0,0.0,0.0,1.0,10.0,37.5)"><text id="ProcessOnText1040" fill="#000000" font-size="12" x="54.0" y="12.3" font-family="微软雅黑" font-weight="bold" font-style="normal" text-decoration="none" family="微软雅黑" text-anchor="middle" size="12">constructor</text></g><g id="ProcessOnG1041" transform="matrix(1.0,0.0,0.0,1.0,10.0,67.5)"><text id="ProcessOnText1042" fill="#000000" font-size="12" x="54.0" y="12.3" font-family="微软雅黑" font-weight="bold" font-style="normal" text-decoration="none" family="微软雅黑" text-anchor="middle" size="12">__proto__</text></g></g><g id="ProcessOnG1043" transform="matrix(1.0,0.0,0.0,1.0,320.0,507.0)" opacity="1.0"><path id="ProcessOnPath1044" d="M0.0 4.0Q0.0 0.0 4.0 0.0L126.0 0.0Q130.0 0.0 130.0 4.0L130.0 75.0Q130.0 79.0 126.0 79.0L4.0 79.0Q0.0 79.0 0.0 75.0Z" stroke="#323232" stroke-width="2.0" stroke-dasharray="none" opacity="1.0" fill="#ffffff"/><g id="ProcessOnG1045" transform="matrix(1.0,0.0,0.0,1.0,10.0,7.0)"><text id="ProcessOnText1046" fill="#000000" font-size="13" x="0.0" y="13.325" font-family="微软雅黑" font-weight="normal" font-style="normal" text-decoration="none" family="微软雅黑" text-anchor="start" size="13">concat(),join(),pus</text><text id="ProcessOnText1047" fill="#000000" font-size="13" x="0.0" y="29.575" font-family="微软雅黑" font-weight="normal" font-style="normal" text-decoration="none" family="微软雅黑" text-anchor="start" size="13">h(),pop(),forEach(</text><text id="ProcessOnText1048" fill="#000000" font-size="13" x="0.0" y="45.825" font-family="微软雅黑" font-weight="normal" font-style="normal" text-decoration="none" family="微软雅黑" text-anchor="start" size="13">),indexOf()等Arra</text><text id="ProcessOnText1049" fill="#000000" font-size="13" x="0.0" y="62.075" font-family="微软雅黑" font-weight="normal" font-style="normal" text-decoration="none" family="微软雅黑" text-anchor="start" size="13">y拥有的方法</text></g></g><g id="ProcessOnG1050" transform="matrix(1.0,0.0,0.0,1.0,261.5,115.0)" opacity="1.0"><path id="ProcessOnPath1051" d="M0.0 4.0Q0.0 0.0 4.0 0.0L167.0 0.0Q171.0 0.0 171.0 4.0L171.0 85.5Q171.0 89.5 167.0 89.5L4.0 89.5Q0.0 89.5 0.0 85.5Z" stroke="#323232" stroke-width="2.0" stroke-dasharray="none" opacity="1.0" fill="#ffffff"/><path id="ProcessOnPath1052" d="M0.0 31.0L171.0 31.0M0.0 61.0L171.0 61.0" stroke="#323232" stroke-width="2.0" stroke-dasharray="none" opacity="1.0" fill="none"/><path id="ProcessOnPath1053" d="M0.0 0.0L171.0 0.0L171.0 89.5L0.0 89.5Z" stroke="none" stroke-width="0.0" stroke-dasharray="none" opacity="1.0" fill="none"/><g id="ProcessOnG1054" transform="matrix(1.0,0.0,0.0,1.0,10.0,8.0)"><text id="ProcessOnText1055" fill="#000000" font-size="12" x="74.5" y="12.3" font-family="微软雅黑" font-weight="bold" font-style="normal" text-decoration="none" family="微软雅黑" text-anchor="middle" size="12">function Array() { … }</text></g><g id="ProcessOnG1056" transform="matrix(1.0,0.0,0.0,1.0,10.0,38.5)"><text id="ProcessOnText1057" fill="#000000" font-size="12" x="74.5" y="12.3" font-family="微软雅黑" font-weight="bold" font-style="normal" text-decoration="none" family="微软雅黑" text-anchor="middle" size="12">name: Array</text></g><g id="ProcessOnG1058" transform="matrix(1.0,0.0,0.0,1.0,10.0,68.5)"><text id="ProcessOnText1059" fill="#000000" font-size="12" x="74.5" y="12.3" font-family="微软雅黑" font-weight="bold" font-style="normal" text-decoration="none" family="微软雅黑" text-anchor="middle" size="12">prototype</text></g></g><g id="ProcessOnG1060" transform="matrix(1.0,0.0,0.0,1.0,261.5,204.5)" opacity="1.0"><path id="ProcessOnPath1061" d="M0.0 4.0Q0.0 0.0 4.0 0.0L167.0 0.0Q171.0 0.0 171.0 4.0L171.0 86.0Q171.0 90.0 167.0 90.0L4.0 90.0Q0.0 90.0 0.0 86.0Z" stroke="#323232" stroke-width="2.0" stroke-dasharray="none" opacity="1.0" fill="#ffffff"/><path id="ProcessOnPath1062" d="M0.0 30.0L171.0 30.0M0.0 60.0L171.0 60.0" stroke="#323232" stroke-width="2.0" stroke-dasharray="none" opacity="1.0" fill="none"/><path id="ProcessOnPath1063" d="M0.0 0.0L171.0 0.0L171.0 90.0L0.0 90.0Z" stroke="none" stroke-width="0.0" stroke-dasharray="none" opacity="1.0" fill="none"/><g id="ProcessOnG1064" transform="matrix(1.0,0.0,0.0,1.0,10.0,7.5)"><text id="ProcessOnText1065" fill="#000000" font-size="12" x="0.0" y="12.3" font-family="微软雅黑" font-weight="normal" font-style="normal" text-decoration="none" family="微软雅黑" text-anchor="start" size="12">__proto__</text></g><g id="ProcessOnG1066" transform="matrix(1.0,0.0,0.0,1.0,10.0,37.5)"><text id="ProcessOnText1067" fill="#000000" font-size="12" x="0.0" y="12.3" font-family="微软雅黑" font-weight="normal" font-style="normal" text-decoration="none" family="微软雅黑" text-anchor="start" size="12">caller, arguments 等属性</text></g><g id="ProcessOnG1068" transform="matrix(1.0,0.0,0.0,1.0,10.0,67.5)"><text id="ProcessOnText1069" fill="#000000" font-size="12" x="0.0" y="12.3" font-family="微软雅黑" font-weight="normal" font-style="normal" text-decoration="none" family="微软雅黑" text-anchor="start" size="12">isArray(),from(),of()</text></g></g><g id="ProcessOnG1070"><path id="ProcessOnPath1071" d="M432.0 188.0L462.0 188.0L462.0 389.0L385.0 389.0L385.0 403.7639320225002" stroke="#323232" stroke-width="2.0" stroke-dasharray="none" fill="none" marker-end="url(#ProcessOnMarker1072)"/></g><g id="ProcessOnG1074"><path id="ProcessOnPath1075" d="M450.0 463.0L480.0 463.0L480.0 129.0L447.2360679774998 129.0" stroke="#323232" stroke-width="2.0" stroke-dasharray="none" fill="none" marker-end="url(#ProcessOnMarker1076)"/></g><g id="ProcessOnG1078" transform="matrix(1.0,0.0,0.0,1.0,562.0,419.0)" opacity="1.0"><path id="ProcessOnPath1079" d="M0.0 4.0Q0.0 0.0 4.0 0.0L202.0 0.0Q206.0 0.0 206.0 4.0L206.0 109.0Q206.0 113.0 202.0 113.0L4.0 113.0Q0.0 113.0 0.0 109.0Z" stroke="#323232" stroke-width="2.0" stroke-dasharray="none" opacity="1.0" fill="#ffffff"/><path id="ProcessOnPath1080" d="M0.0 49.0L206.0 49.0M0.0 79.0L206.0 79.0" stroke="#323232" stroke-width="2.0" stroke-dasharray="none" opacity="1.0" fill="none"/><path id="ProcessOnPath1081" d="M0.0 0.0L206.0 0.0L206.0 113.0L0.0 113.0Z" stroke="none" stroke-width="0.0" stroke-dasharray="none" opacity="1.0" fill="none"/><g id="ProcessOnG1082" transform="matrix(1.0,0.0,0.0,1.0,10.0,0.125)"><text id="ProcessOnText1083" fill="#000000" font-size="13" x="92.0" y="13.325" font-family="微软雅黑" font-weight="bold" font-style="normal" text-decoration="none" family="微软雅黑" text-anchor="middle" size="13">Object {constructor: , __defin</text><text id="ProcessOnText1084" fill="#000000" font-size="13" x="92.0" y="29.575" font-family="微软雅黑" font-weight="bold" font-style="normal" text-decoration="none" family="微软雅黑" text-anchor="middle" size="13">eGetter__: , __defineSetter__: ,</text><text id="ProcessOnText1085" fill="#000000" font-size="13" x="92.0" y="45.825" font-family="微软雅黑" font-weight="bold" font-style="normal" text-decoration="none" family="微软雅黑" text-anchor="middle" size="13">…}</text></g><g id="ProcessOnG1086" transform="matrix(1.0,0.0,0.0,1.0,10.0,55.875)"><text id="ProcessOnText1087" fill="#000000" font-size="13" x="92.0" y="13.325" font-family="微软雅黑" font-weight="bold" font-style="normal" text-decoration="none" family="微软雅黑" text-anchor="middle" size="13">__proto__</text></g><g id="ProcessOnG1088" transform="matrix(1.0,0.0,0.0,1.0,10.0,85.875)"><text id="ProcessOnText1089" fill="#000000" font-size="13" x="92.0" y="13.325" font-family="微软雅黑" font-weight="bold" font-style="normal" text-decoration="none" family="微软雅黑" text-anchor="middle" size="13">constructor</text></g></g><g id="ProcessOnG1090"><path id="ProcessOnPath1091" d="M450.0 492.0L506.0 492.0L506.0 445.0L546.7639320225002 445.0" stroke="#323232" stroke-width="2.0" stroke-dasharray="none" fill="none" marker-end="url(#ProcessOnMarker1092)"/></g><g id="ProcessOnG1094" transform="matrix(1.0,0.0,0.0,1.0,562.0,532.0)" opacity="1.0"><path id="ProcessOnPath1095" d="M0.0 4.0Q0.0 0.0 4.0 0.0L202.0 0.0Q206.0 0.0 206.0 4.0L206.0 79.0Q206.0 83.0 202.0 83.0L4.0 83.0Q0.0 83.0 0.0 79.0Z" stroke="#323232" stroke-width="2.0" stroke-dasharray="none" opacity="1.0" fill="#ffffff"/><g id="ProcessOnG1096" transform="matrix(1.0,0.0,0.0,1.0,10.0,0.875)"><text id="ProcessOnText1097" fill="#000000" font-size="13" x="0.0" y="13.325" font-family="微软雅黑" font-weight="normal" font-style="normal" text-decoration="none" family="微软雅黑" text-anchor="start" size="13">hasOwnProperty(),</text><text id="ProcessOnText1098" fill="#000000" font-size="13" x="0.0" y="29.575" font-family="微软雅黑" font-weight="normal" font-style="normal" text-decoration="none" family="微软雅黑" text-anchor="start" size="13">isPrototypeOf(),</text><text id="ProcessOnText1099" fill="#000000" font-size="13" x="0.0" y="45.825" font-family="微软雅黑" font-weight="normal" font-style="normal" text-decoration="none" family="微软雅黑" text-anchor="start" size="13">__defineGetter__(),</text><text id="ProcessOnText1100" fill="#000000" font-size="13" x="0.0" y="62.075" font-family="微软雅黑" font-weight="normal" font-style="normal" text-decoration="none" family="微软雅黑" text-anchor="start" size="13">__defineSetter__()</text><text id="ProcessOnText1101" fill="#000000" font-size="13" x="0.0" y="78.325" font-family="微软雅黑" font-weight="normal" font-style="normal" text-decoration="none" family="微软雅黑" text-anchor="start" size="13">等所有对象都有的方法</text></g></g><g id="ProcessOnG1102" transform="matrix(1.0,0.0,0.0,1.0,916.25,554.0)" opacity="1.0"><path id="ProcessOnPath1103" d="M0.0 4.0Q0.0 0.0 4.0 0.0L88.0 0.0Q92.0 0.0 92.0 4.0L92.0 30.5Q92.0 34.5 88.0 34.5L4.0 34.5Q0.0 34.5 0.0 30.5Z" stroke="#323232" stroke-width="2.0" stroke-dasharray="none" opacity="1.0" fill="#ffffff"/><g id="ProcessOnG1104" transform="matrix(1.0,0.0,0.0,1.0,10.0,9.125)"><text id="ProcessOnText1105" fill="#000000" font-size="13" x="35.0" y="13.325" font-family="微软雅黑" font-weight="normal" font-style="normal" text-decoration="none" family="微软雅黑" text-anchor="middle" size="13">null</text></g></g><g id="ProcessOnG1106"><path id="ProcessOnPath1107" d="M768.0 483.0L842.125 483.0L842.125 571.25L901.0139320225002 571.25" stroke="#323232" stroke-width="2.0" stroke-dasharray="none" fill="none" marker-end="url(#ProcessOnMarker1108)"/></g><g id="ProcessOnG1110" transform="matrix(1.0,0.0,0.0,1.0,562.0,115.0)" opacity="1.0"><path id="ProcessOnPath1111" d="M0.0 4.0Q0.0 0.0 4.0 0.0L167.0 0.0Q171.0 0.0 171.0 4.0L171.0 86.0Q171.0 90.0 167.0 90.0L4.0 90.0Q0.0 90.0 0.0 86.0Z" stroke="#323232" stroke-width="2.0" stroke-dasharray="none" opacity="1.0" fill="#ffffff"/><path id="ProcessOnPath1112" d="M0.0 30.0L171.0 30.0M0.0 60.0L171.0 60.0" stroke="#323232" stroke-width="2.0" stroke-dasharray="none" opacity="1.0" fill="none"/><path id="ProcessOnPath1113" d="M0.0 0.0L171.0 0.0L171.0 90.0L0.0 90.0Z" stroke="none" stroke-width="0.0" stroke-dasharray="none" opacity="1.0" fill="none"/><g id="ProcessOnG1114" transform="matrix(1.0,0.0,0.0,1.0,10.0,7.5)"><text id="ProcessOnText1115" fill="#000000" font-size="12" x="74.5" y="12.3" font-family="微软雅黑" font-weight="bold" font-style="normal" text-decoration="none" family="微软雅黑" text-anchor="middle" size="12">function Object() { … }</text></g><g id="ProcessOnG1116" transform="matrix(1.0,0.0,0.0,1.0,10.0,37.5)"><text id="ProcessOnText1117" fill="#000000" font-size="12" x="74.5" y="12.3" font-family="微软雅黑" font-weight="bold" font-style="normal" text-decoration="none" family="微软雅黑" text-anchor="middle" size="12">name: Object</text></g><g id="ProcessOnG1118" transform="matrix(1.0,0.0,0.0,1.0,10.0,67.5)"><text id="ProcessOnText1119" fill="#000000" font-size="12" x="74.5" y="12.3" font-family="微软雅黑" font-weight="bold" font-style="normal" text-decoration="none" family="微软雅黑" text-anchor="middle" size="12">prototype</text></g></g><g id="ProcessOnG1120" transform="matrix(1.0,0.0,0.0,1.0,562.0,205.0)" opacity="1.0"><path id="ProcessOnPath1121" d="M0.0 4.0Q0.0 0.0 4.0 0.0L167.0 0.0Q171.0 0.0 171.0 4.0L171.0 117.0Q171.0 121.0 167.0 121.0L4.0 121.0Q0.0 121.0 0.0 117.0Z" stroke="#323232" stroke-width="2.0" stroke-dasharray="none" opacity="1.0" fill="#ffffff"/><path id="ProcessOnPath1122" d="M0.0 30.0L171.0 30.0M0.0 60.0L171.0 60.0" stroke="#323232" stroke-width="2.0" stroke-dasharray="none" opacity="1.0" fill="none"/><path id="ProcessOnPath1123" d="M0.0 0.0L171.0 0.0L171.0 121.0L0.0 121.0Z" stroke="none" stroke-width="0.0" stroke-dasharray="none" opacity="1.0" fill="none"/><g id="ProcessOnG1124" transform="matrix(1.0,0.0,0.0,1.0,10.0,7.5)"><text id="ProcessOnText1125" fill="#000000" font-size="12" x="0.0" y="12.3" font-family="微软雅黑" font-weight="normal" font-style="normal" text-decoration="none" family="微软雅黑" text-anchor="start" size="12">__proto__</text></g><g id="ProcessOnG1126" transform="matrix(1.0,0.0,0.0,1.0,10.0,37.5)"><text id="ProcessOnText1127" fill="#000000" font-size="12" x="0.0" y="12.3" font-family="微软雅黑" font-weight="normal" font-style="normal" text-decoration="none" family="微软雅黑" text-anchor="start" size="12">caller, arguments 等属性</text></g><g id="ProcessOnG1128" transform="matrix(1.0,0.0,0.0,1.0,10.0,60.5)"><text id="ProcessOnText1129" fill="#000000" font-size="12" x="0.0" y="12.3" font-family="微软雅黑" font-weight="normal" font-style="normal" text-decoration="none" family="微软雅黑" text-anchor="start" size="12">assign(),</text><text id="ProcessOnText1130" fill="#000000" font-size="12" x="0.0" y="27.3" font-family="微软雅黑" font-weight="normal" font-style="normal" text-decoration="none" family="微软雅黑" text-anchor="start" size="12">defineProperty(),</text><text id="ProcessOnText1131" fill="#000000" font-size="12" x="0.0" y="42.3" font-family="微软雅黑" font-weight="normal" font-style="normal" text-decoration="none" family="微软雅黑" text-anchor="start" size="12">getOwnPropertyNames(),</text><text id="ProcessOnText1132" fill="#000000" font-size="12" x="0.0" y="57.3" font-family="微软雅黑" font-weight="normal" font-style="normal" text-decoration="none" family="微软雅黑" text-anchor="start" size="12">getPrototypeOf() 等方法</text></g></g><g id="ProcessOnG1133"><path id="ProcessOnPath1134" d="M768.0 515.0L798.0 515.0L798.0 130.0L748.2360679774998 130.0" stroke="#323232" stroke-width="2.0" stroke-dasharray="none" fill="none" marker-end="url(#ProcessOnMarker1135)"/></g><g id="ProcessOnG1137"><path id="ProcessOnPath1138" d="M733.0 190.0L763.0 190.0L763.0 389.0L665.0 389.0L665.0 403.7639320225002" stroke="#323232" stroke-width="2.0" stroke-dasharray="none" fill="none" marker-end="url(#ProcessOnMarker1139)"/></g><g id="ProcessOnG1141" transform="matrix(1.0,0.0,0.0,1.0,876.5,328.25)" opacity="1.0"><path id="ProcessOnPath1142" d="M0.0 4.0Q0.0 0.0 4.0 0.0L201.5 0.0Q205.5 0.0 205.5 4.0L205.5 87.40625Q205.5 91.40625 201.5 91.40625L4.0 91.40625Q0.0 91.40625 0.0 87.40625Z" stroke="#323232" stroke-width="2.0" stroke-dasharray="none" opacity="1.0" fill="#ffffff"/><path id="ProcessOnPath1143" d="M0.0 30.0L205.5 30.0M0.0 60.0L205.5 60.0" stroke="#323232" stroke-width="2.0" stroke-dasharray="none" opacity="1.0" fill="none"/><path id="ProcessOnPath1144" d="M0.0 0.0L205.5 0.0L205.5 91.40625L0.0 91.40625Z" stroke="none" stroke-width="0.0" stroke-dasharray="none" opacity="1.0" fill="none"/><g id="ProcessOnG1145" transform="matrix(1.0,0.0,0.0,1.0,10.0,7.5)"><text id="ProcessOnText1146" fill="#000000" font-size="12" x="91.75" y="12.3" font-family="微软雅黑" font-weight="bold" font-style="normal" text-decoration="none" family="微软雅黑" text-anchor="middle" size="12">function () { … }</text></g><g id="ProcessOnG1147" transform="matrix(1.0,0.0,0.0,1.0,10.0,37.5)"><text id="ProcessOnText1148" fill="#000000" font-size="12" x="91.75" y="12.3" font-family="微软雅黑" font-weight="bold" font-style="normal" text-decoration="none" family="微软雅黑" text-anchor="middle" size="12">name: ""</text></g><g id="ProcessOnG1149" transform="matrix(1.0,0.0,0.0,1.0,10.0,67.5)"><text id="ProcessOnText1150" fill="#000000" font-size="12" x="91.75" y="12.3" font-family="微软雅黑" font-weight="bold" font-style="normal" text-decoration="none" family="微软雅黑" text-anchor="middle" size="12">__proto__</text></g></g><g id="ProcessOnG1151"><path id="ProcessOnPath1152" d="M733.0 221.0L939.5 221.0L939.5 313.0139320225002" stroke="#323232" stroke-width="2.0" stroke-dasharray="none" fill="none" marker-end="url(#ProcessOnMarker1153)"/></g><g id="ProcessOnG1155" transform="matrix(1.0,0.0,0.0,1.0,876.5,419.65625)" opacity="1.0"><path id="ProcessOnPath1156" d="M0.0 4.0Q0.0 0.0 4.0 0.0L201.5 0.0Q205.5 0.0 205.5 4.0L205.5 56.0Q205.5 60.0 201.5 60.0L4.0 60.0Q0.0 60.0 0.0 56.0Z" stroke="#323232" stroke-width="2.0" stroke-dasharray="none" opacity="1.0" fill="#ffffff"/><path id="ProcessOnPath1157" d="M0.0 30.0L205.5 30.0" stroke="#323232" stroke-width="2.0" stroke-dasharray="none" opacity="1.0" fill="none"/><path id="ProcessOnPath1158" d="M0.0 0.0L205.5 0.0L205.5 60.0L0.0 60.0Z" stroke="none" stroke-width="0.0" stroke-dasharray="none" opacity="1.0" fill="none"/><g id="ProcessOnG1159" transform="matrix(1.0,0.0,0.0,1.0,10.0,6.875)"><text id="ProcessOnText1160" fill="#000000" font-size="13" x="0.0" y="13.325" font-family="微软雅黑" font-weight="normal" font-style="normal" text-decoration="none" family="微软雅黑" text-anchor="start" size="13">constructor</text></g><g id="ProcessOnG1161" transform="matrix(1.0,0.0,0.0,1.0,10.0,36.875)"><text id="ProcessOnText1162" fill="#000000" font-size="13" x="0.0" y="13.325" font-family="微软雅黑" font-weight="normal" font-style="normal" text-decoration="none" family="微软雅黑" text-anchor="start" size="13">apply(), call(), bind()等方法</text></g></g><g id="ProcessOnG1163" transform="matrix(1.0,0.0,0.0,1.0,1135.25,147.5)" opacity="1.0"><path id="ProcessOnPath1164" d="M0.0 4.0Q0.0 0.0 4.0 0.0L226.0 0.0Q230.0 0.0 230.0 4.0L230.0 86.0Q230.0 90.0 226.0 90.0L4.0 90.0Q0.0 90.0 0.0 86.0Z" stroke="#323232" stroke-width="2.0" stroke-dasharray="none" opacity="1.0" fill="#ffffff"/><path id="ProcessOnPath1165" d="M0.0 30.0L230.0 30.0M0.0 60.0L230.0 60.0" stroke="#323232" stroke-width="2.0" stroke-dasharray="none" opacity="1.0" fill="none"/><path id="ProcessOnPath1166" d="M0.0 0.0L230.0 0.0L230.0 90.0L0.0 90.0Z" stroke="none" stroke-width="0.0" stroke-dasharray="none" opacity="1.0" fill="none"/><g id="ProcessOnG1167" transform="matrix(1.0,0.0,0.0,1.0,10.0,6.875)"><text id="ProcessOnText1168" fill="#000000" font-size="13" x="104.0" y="13.325" font-family="微软雅黑" font-weight="bold" font-style="normal" text-decoration="none" family="微软雅黑" text-anchor="middle" size="13">function Function() { … }</text></g><g id="ProcessOnG1169" transform="matrix(1.0,0.0,0.0,1.0,10.0,36.875)"><text id="ProcessOnText1170" fill="#000000" font-size="13" x="104.0" y="13.325" font-family="微软雅黑" font-weight="bold" font-style="normal" text-decoration="none" family="微软雅黑" text-anchor="middle" size="13">name: Function</text></g><g id="ProcessOnG1171" transform="matrix(1.0,0.0,0.0,1.0,10.0,66.875)"><text id="ProcessOnText1172" fill="#000000" font-size="13" x="104.0" y="13.325" font-family="微软雅黑" font-weight="bold" font-style="normal" text-decoration="none" family="微软雅黑" text-anchor="middle" size="13">prototype</text></g></g><g id="ProcessOnG1173" transform="matrix(1.0,0.0,0.0,1.0,1135.25,237.5)" opacity="1.0"><path id="ProcessOnPath1174" d="M0.0 4.0Q0.0 0.0 4.0 0.0L226.0 0.0Q230.0 0.0 230.0 4.0L230.0 26.0Q230.0 30.0 226.0 30.0L4.0 30.0Q0.0 30.0 0.0 26.0Z" stroke="#323232" stroke-width="2.0" stroke-dasharray="none" opacity="1.0" fill="#ffffff"/><g id="ProcessOnG1175" transform="matrix(1.0,0.0,0.0,1.0,10.0,6.875)"><text id="ProcessOnText1176" fill="#000000" font-size="13" x="0.0" y="13.325" font-family="微软雅黑" font-weight="normal" font-style="normal" text-decoration="none" family="微软雅黑" text-anchor="start" size="13">__proto__</text></g></g><g id="ProcessOnG1177"><path id="ProcessOnPath1178" d="M876.5 401.25L822.25 401.25L822.25 445.0L783.2360679774998 445.0" stroke="#323232" stroke-width="2.0" stroke-dasharray="none" fill="none" marker-end="url(#ProcessOnMarker1179)"/></g><g id="ProcessOnG1181"><path id="ProcessOnPath1182" d="M1081.5 434.25L1108.375 434.25L1108.375 162.5L1120.0139320225003 162.5" stroke="#323232" stroke-width="2.0" stroke-dasharray="none" fill="none" marker-end="url(#ProcessOnMarker1183)"/></g><g id="ProcessOnG1185"><path id="ProcessOnPath1186" d="M1135.25 219.5L988.5 219.5L988.5 313.0139320225002" stroke="#323232" stroke-width="2.0" stroke-dasharray="none" fill="none" marker-end="url(#ProcessOnMarker1187)"/></g><g id="ProcessOnG1189"><path id="ProcessOnPath1190" d="M432.0 220.0L534.5 220.0L534.5 84.0L637.0 84.0" stroke="#323232" stroke-width="2.0" stroke-dasharray="none" fill="none"/></g><g id="ProcessOnG1191"><path id="ProcessOnPath1192" d="M624.0 84.0L964.5 84.0L964.5 313.0139320225002" stroke="#323232" stroke-width="2.0" stroke-dasharray="none" fill="none" marker-end="url(#ProcessOnMarker1193)"/></g><g id="ProcessOnG1195"><path id="ProcessOnPath1196" d="M1135.25 252.5L1014.5 252.5L1014.5 313.0139320225002" stroke="#323232" stroke-width="2.0" stroke-dasharray="none" fill="none" marker-end="url(#ProcessOnMarker1197)"/></g></g></g></svg>